<?xml version="1.0" encoding="utf-8"?>
<!-- Svg Vector Icons : http://www.onlinewebfonts.com/icon -->
<!DOCTYPE svg PUBLIC "-//W3C//DTD SVG 1.1//EN" "http://www.w3.org/Graphics/SVG/1.1/DTD/svg11.dtd">
<svg version="1.1" xmlns="http://www.w3.org/2000/svg" xmlns:xlink="http://www.w3.org/1999/xlink" x="0px" y="0px" viewBox="0 0 256 256" enable-background="new 0 0 256 256" xml:space="preserve">
<metadata> Svg Vector Icons : http://www.onlinewebfonts.com/icon </metadata>
<g><g><g><path fill="#000000" d="M118.9,10.1c-24.2,2.5-44,10-62.4,23.8c-5.8,4.3-18.4,16.9-22.7,22.7C21.3,73.3,13.6,92,10.6,113.4c-0.8,5.4-0.8,23.6,0,29.1c3,21.4,10.8,40.3,23.3,56.8c4.3,5.8,13.1,14.9,19.1,19.8c23.8,19.6,55,29.3,85.3,26.4c27.4-2.6,51.9-13.8,71.7-33c20.5-19.9,32.9-45.7,35.6-74.3c2.8-30.2-6.9-61.5-26.4-85.3c-18.7-22.8-44.9-37.5-74.6-42.1C139.8,10.3,122.9,9.7,118.9,10.1z M137.3,25c18.8,1.7,37,8.7,52.4,20.1c6.1,4.6,16.3,14.8,20.9,20.9c10.4,14,16.6,29,19.5,46.9c1.2,7.1,1.2,22.4,0,29.8c-2.8,17.8-9.1,33.1-19.7,47.3c-4.4,5.9-14.7,16.2-20.6,20.6c-14.2,10.5-29.7,16.9-47.3,19.7c-7.3,1.1-22.7,1.1-29.8,0c-19.2-3.1-35.8-10.4-50.3-22.1c-5.3-4.2-13.3-12.7-17.5-18.3c-27.5-36.9-27.4-86.9,0.1-123.9c4.1-5.5,12.2-13.9,17.4-18.1C83.6,30.8,110.6,22.6,137.3,25z"/><path fill="#000000" d="M126.2,73.5c-2.3,0.5-4.2,2.1-5,4.2c-0.6,1.7-0.7,5.1-0.7,28.9v27.1l-6.1-6c-6.6-6.5-8.3-7.5-11.6-6.9c-1.9,0.4-4.2,2.1-5.1,4c-0.8,1.6-0.9,4.9-0.1,6.3c0.7,1.3,26,26.8,27.2,27.5c1.5,0.8,5.2,0.6,6.6-0.4c2.7-1.8,26.8-26.7,27.1-28c0.5-1.9,0-5.1-1-6.5c-1.9-2.6-5.8-3.7-8.8-2.6c-0.7,0.2-4,3.2-7.4,6.6l-6.1,6v-27.2c0-26.5,0-27.2-1-29.1C132.9,74.3,129.5,72.7,126.2,73.5z"/><path fill="#000000" d="M76.8,98.2c-3.6,2.2-3.4-0.3-3.4,41.9v37.6l1.1,1.5c0.6,0.9,1.8,2,2.6,2.5c1.6,1,2,1,50.8,1s49.1,0,50.8-1c0.9-0.5,2.1-1.6,2.6-2.5l1.1-1.5V140c0-35.8,0-37.7-0.9-39.3c-0.5-0.9-1.7-2.1-2.6-2.7c-1.8-1-2-1-16-0.9c-13.5,0.1-14.2,0.2-15.4,1.1c-2,1.5-3,3.1-3.3,5.4c-0.3,2.7,0.7,5,2.9,6.6l1.7,1.3l9.4,0.1l9.4,0.1v28.1V168h-39.7H88.2v-28.1v-28.1l9.4-0.1l9.4-0.1l1.7-1.3c4.2-3.1,4-8.8-0.4-12c-1.2-0.9-1.9-1-15.4-1.1L78.7,97L76.8,98.2z"/></g></g></g>
</svg>