<?xml version="1.0" encoding="UTF-8" standalone="no"?>
<svg
   version="1.0"
   width="700pt"
   height="700pt"
   viewBox="0 0 700 700"
   preserveAspectRatio="xMidYMid"
   id="svg964"
   sodipodi:docname="driving.svg"
   inkscape:version="1.2.1 (9c6d41e410, 2022-07-14)"
   xmlns:inkscape="http://www.inkscape.org/namespaces/inkscape"
   xmlns:sodipodi="http://sodipodi.sourceforge.net/DTD/sodipodi-0.dtd"
   xmlns="http://www.w3.org/2000/svg"
   xmlns:svg="http://www.w3.org/2000/svg">
  <defs
     id="defs968" />
  <sodipodi:namedview
     id="namedview966"
     pagecolor="#ffffff"
     bordercolor="#000000"
     borderopacity="0.25"
     inkscape:showpageshadow="2"
     inkscape:pageopacity="0.0"
     inkscape:pagecheckerboard="0"
     inkscape:deskcolor="#d1d1d1"
     inkscape:document-units="pt"
     showgrid="false"
     inkscape:zoom="0.1913303"
     inkscape:cx="135.89066"
     inkscape:cy="329.27352"
     inkscape:window-width="1920"
     inkscape:window-height="1017"
     inkscape:window-x="1912"
     inkscape:window-y="32"
     inkscape:window-maximized="1"
     inkscape:current-layer="svg964" />
  <g
     transform="matrix(0.1,0,0,-0.1,31.359383,638.79884)"
     fill="#000000"
     stroke="none"
     id="g962"
     style="fill:#333333">
    <path
       d="m 2999.4086,5626.2246 c -185,-26 -486,-155 -621,-265 -58,-48 -83,-100 -156,-319 -59,-176 -60,-185 -70,-336 -9,-145 -7,-266 8,-537 l 6,-112 -35,6 c -47,7 -130,-31 -191,-89 -46,-45 -53,-61 -37,-87 7,-10 27,-5 100,28 51,22 105,49 120,61 16,11 32,20 37,20 4,0 4,-294 1,-652 -22,-2132 -22,-2000 1,-2143 12,-71 33,-212.99999 47,-314.99999 44,-330 56,-369 137,-450 57,-57 105,-83 229,-124 182,-61 309,-79 574,-79 265,0 392,18 574,79 120,40 170,66 223,118 79,77 104,146 132,371 17,134 21,160 58,399.99999 20,136 21,158 14,795 -3,360 -9,958 -13,1328 -3,369 -3,672 1,672 5,0 21,-9 37,-20 42,-31 208,-102 219,-95 22,14 8,50 -36,93 -59,56 -141,95 -192,90 l -37,-3 3,90 c 2,50 8,108 13,130 11,49 11,241 0,435 -8,143 -9,148 -75,342 -36,109 -77,216 -91,238 -46,73 -187,161 -400,250 -55,23 -136,50 -180,61 -92,22 -306,33 -400,19 z m 400,-995 c 260,-37 533,-127 566,-187 8,-14 15,-74 17,-160 6,-193 -18,-382 -84,-672 -19,-82 -35,-151 -37,-153 -3,-2 -42,5 -89,16 -392,92 -859,90 -1261,-3 -38,-9 -70,-16 -72,-16 -5,0 -49,191 -74,320 -34,171 -51,333 -51,468 1,145 10,200 40,224 61,49 340,134 532,162 125,19 389,19 513,1 z m -1151,-533 c 13,-66 80,-413 112,-580 l 34,-183 -2,-288 -3,-287 -76,35 -76,36 -7,89 c -10,143 -7,1218 3,1211 5,-3 12,-18 15,-33 z m 1819,-1191 -8,-75 -75,-37 -75,-37 -3,291 c -2,286 -2,293 27,441 35,180 97,505 107,561 4,22 12,51 18,65 13,30 21,-1086 9,-1209 z m -1735,-273 62,-20 v -354 -354 l -67,-45 c -67,-45 -68,-45 -74,-22 -4,13 -10,205 -14,427 -7,390 -7,403 11,396 11,-5 47,-17 82,-28 z m 1727,-390 c -4,-233 -9,-425 -11,-427 -2,-2 -35,17 -74,43 l -70,46 v 354 354 l 73,25 c 39,13 76,25 80,26 5,0 6,-189 2,-421 z m -1671,-385 c -46,-201 -105,-383 -125,-383 -5,0 -9,73 -9,163 l 1,162 62,42 c 34,24 65,43 70,43 4,0 5,-12 1,-27 z m 1592,-15 63,-43 1,-162 c 0,-90 -4,-163 -9,-163 -16,0 -66,140 -100,280 -30,119 -32,130 -25,130 4,0 36,-19 70,-42 z m -1461,-283 c 126,-39 258,-49 630,-49 373,0 502,10 632,49 40,12 58,13 73,5 20,-10 20,-21 20,-410 V 757.22461 l -77,-25 c -188,-58 -357,-79 -648,-79 -297,0 -477,23 -662,84 l -63,21 v 397.99999 c 0,369 1,400 18,409 22,13 18,13 77,-4 z"
       id="path960"
       style="fill:#333333" />
  </g>
</svg>
