<?xml version="1.0" encoding="UTF-8" standalone="no"?>
<svg
   version="1.0"
   width="612.000000pt"
   height="612.000000pt"
   viewBox="0 0 612.000000 612.000000"
   preserveAspectRatio="xMidYMid meet"
   id="svg431"
   sodipodi:docname="hang-glider.svg"
   inkscape:version="1.2.1 (9c6d41e410, 2022-07-14)"
   xmlns:inkscape="http://www.inkscape.org/namespaces/inkscape"
   xmlns:sodipodi="http://sodipodi.sourceforge.net/DTD/sodipodi-0.dtd"
   xmlns="http://www.w3.org/2000/svg"
   xmlns:svg="http://www.w3.org/2000/svg">
  <defs
     id="defs435" />
  <sodipodi:namedview
     id="namedview433"
     pagecolor="#ffffff"
     bordercolor="#000000"
     borderopacity="0.25"
     inkscape:showpageshadow="2"
     inkscape:pageopacity="0.0"
     inkscape:pagecheckerboard="0"
     inkscape:deskcolor="#d1d1d1"
     inkscape:document-units="pt"
     showgrid="false"
     inkscape:zoom="0.72530438"
     inkscape:cx="202.67353"
     inkscape:cy="275.7463"
     inkscape:window-width="1920"
     inkscape:window-height="1017"
     inkscape:window-x="1912"
     inkscape:window-y="32"
     inkscape:window-maximized="1"
     inkscape:current-layer="g429" />
  <g
     transform="translate(0.000000,612.000000) scale(0.100000,-0.100000)"
     fill="#000000"
     stroke="none"
     id="g429">
    <path
       d="m 5796.8985,3118.4023 c -213.9455,107.3124 -601.9956,301.1517 -670.1829,336.1673 -25.6515,13.0515 -226.1219,114.4729 -445.4899,225.3807 -220.0174,110.2735 -656.0258,329.6721 -969.8821,488.0125 -313.8561,158.3405 -590.5664,297.0735 -614.2044,309.5509 l -43.8347,20.6953 -174.1277,-90.1082 c -95.9115,-50.5233 -235.2332,-121.8663 -308.1571,-160.0912 -220.1355,-113.4659 -396.8931,-204.8732 -637.3538,-330.5772 -125.49,-65.4505 -375.1718,-195.0826 -555.2088,-288.424 -353.5154,-182.8146 -714.23877,-370.1317 -1041.42225,-541.1917 -113.67168,-58.9842 -216.79114,-114.0098 -229.87568,-122.984 -47.143726,-30.8213 -48.113056,-120.7096 -1.74479,-161.7994 45.00438,-39.8813 47.66691,-39.8207 983.97002,192.8143 186.5984,46.388 1135.532,279.9301 1336.0595,328.4942 97.2766,23.9041 225.6585,55.3333 286.5373,70.3528 60.197,15.6237 109.8747,26.05 109.2576,24.1767 -0.6166,-1.8735 -31.1348,-57.1071 -69.3477,-123.6716 -67.4973,-118.0517 -112.0408,-197.1556 -190.3819,-333.4273 -45.8423,-80.3731 -113.989,-199.059 -141.4231,-244.9261 -17.8567,-30.1549 -14.9648,-64.1769 8.2193,-84.7214 3.4096,-3.0213 91.3685,-4.7397 195.8871,-2.9822 169.0996,2.606 189.1332,0.5824 201.6023,-17.727 31.1731,-45.7737 79.13,-45.9226 142.5726,-1.7156 52.9554,37.7706 65.1316,30.6104 83.9032,-50.1525 15.8161,-69.6742 41.5746,-264.3155 50.5424,-377.5294 12.9635,-163.944 33.8785,-250.2361 67.9726,-280.4491 58.6423,-51.9666 100.232,12.8156 108.0811,170.4154 2.0753,47.7694 6.3241,139.5919 9.9897,202.8917 6.3892,137.1143 33.7814,362.0936 43.1002,362.3055 3.3118,0.6951 25.0019,-13.686 48.7703,-31.1188 49.6151,-37.9171 93.2545,-51.1792 125.5606,-38.6689 19.8061,6.6481 24.2864,13.5675 27.5969,39.673 l 4.5111,31.0912 162.4761,1.2159 c 170.4635,1.3978 196.9256,8.1974 193.1243,51.4948 -1.6238,11.1187 -91.2478,177.6577 -200.1923,369.7875 -109.6264,192.7343 -197.042,351.2663 -195.0938,353.17 2.5972,2.538 576.8552,-130.0477 1192.7395,-275.3218 288.8502,-68.4228 841.0289,-197.1722 1044.7433,-244.6 165.4978,-37.7607 200.2724,-43.1673 229.2994,-32.5909 67.3403,22.6037 85.7782,106.6916 34.02,150.138 -9.5466,8.4597 -100.7225,56.5873 -202.6138,106.9505 z m -2247.4227,-14.5457 c 104.7882,-186.0267 194.1843,-343.894 198.4055,-352.4746 5.6505,-12.267 -20.2598,-14.7154 -140.1036,-16.2015 l -147.1831,-0.2485 -48.3815,41.6637 c -44.3227,39.2771 -78.871,61.4228 -125.368,82.0572 -16.8519,7.6737 -16.9823,12.6289 -0.9109,34.6863 24.3825,35.2616 27.0097,87.3821 6.0978,122.8531 -13.9632,24.4731 -23.4771,31.6939 -58.4796,45.7723 -112.3786,43.9272 -215.235,-71.8299 -148.7654,-168.2418 l 13.8656,-20.7568 -53.8975,-27.256 c -30.2281,-15.562 -77.9885,-48.2564 -106.6577,-72.4596 l -52.7927,-43.9646 -165.1384,-1.2768 c -90.5567,-0.8197 -164.5869,3.0744 -165.3664,7.3952 0.5517,4.351 58.4066,109.1681 129.7675,232.2657 71.3608,123.0979 161.1301,280.7013 199.9595,349.1393 38.8298,68.4379 75.192,129.3825 80.3868,134.4587 5.195,5.0763 47.4689,18.4332 93.8022,29.4029 79.4186,19.16 90.0685,19.4022 183.2238,-2.6503 54.2569,-11.7811 102.5719,-25.5569 107.3451,-29.7866 5.4224,-3.5953 94.7536,-158.9852 200.191,-344.3773 z"
       id="path427"
       style="fill:#ff0000;stroke:#000000;stroke-width:27.2498;stroke-dasharray:none;stroke-opacity:1" />
  </g>
</svg>
