<?xml version="1.0" encoding="UTF-8" standalone="no"?>
<svg
   version="1.0"
   width="700pt"
   height="700pt"
   viewBox="0 0 700 700"
   preserveAspectRatio="xMidYMid"
   id="svg220"
   sodipodi:docname="helicopter.svg"
   inkscape:version="1.2.1 (9c6d41e410, 2022-07-14)"
   xmlns:inkscape="http://www.inkscape.org/namespaces/inkscape"
   xmlns:sodipodi="http://sodipodi.sourceforge.net/DTD/sodipodi-0.dtd"
   xmlns="http://www.w3.org/2000/svg"
   xmlns:svg="http://www.w3.org/2000/svg">
  <defs
     id="defs224" />
  <sodipodi:namedview
     id="namedview222"
     pagecolor="#ffffff"
     bordercolor="#000000"
     borderopacity="0.25"
     inkscape:showpageshadow="2"
     inkscape:pageopacity="0.0"
     inkscape:pagecheckerboard="0"
     inkscape:deskcolor="#d1d1d1"
     inkscape:document-units="pt"
     showgrid="false"
     inkscape:zoom="0.55918224"
     inkscape:cx="-121.60615"
     inkscape:cy="377.33673"
     inkscape:window-width="1920"
     inkscape:window-height="1137"
     inkscape:window-x="1912"
     inkscape:window-y="32"
     inkscape:window-maximized="1"
     inkscape:current-layer="svg220" />
  <g
     transform="matrix(0.11234782,-0.22025832,-0.24093066,-0.10270815,469.70706,1105.6991)"
     fill="#000000"
     stroke="none"
     id="g218">
    <path
       d="m 3264,2934 c -6,-3 -67,-166 -135,-364 l -124,-359 -78,-30 c -43,-17 -82,-31 -86,-31 -4,0 -38,47 -75,105 -74,116 -95,135 -142,135 -38,0 -94,-42 -94,-70 0,-10 36,-72 79,-138 l 80,-120 -56,-42 -56,-42 -216,52 c -119,29 -317,76 -440,106 -273,66 -301,68 -301,18 0,-28 15,-37 100,-58 56,-13 369,-88 660,-157 134,-32 125,-25 92,-67 -43,-57 -59,-85 -72,-128 l -12,-40 -395,-198 c -217,-109 -395,-196 -397,-195 -1,2 -14,23 -30,47 -20,33 -32,42 -44,37 -9,-4 -25,-10 -34,-12 -24,-7 -23,-11 11,-65 l 30,-47 -52,-29 c -65,-37 -112,-85 -104,-106 9,-23 63,-20 151,8 l 75,24 31,-49 c 30,-46 33,-47 58,-37 45,19 46,25 19,67 -15,22 -27,44 -27,48 0,5 24,18 53,29 28,12 211,88 405,169 l 353,148 57,-14 c 31,-7 92,-14 134,-14 43,0 78,-2 78,-6 0,-3 -30,-90 -66,-195 -158,-452 -178,-516 -167,-533 13,-20 66,-26 80,-9 9,12 46,117 208,588 31,91 58,166 59,168 2,1 35,10 74,20 l 72,18 71,-109 c 39,-60 80,-118 90,-128 44,-44 149,-9 149,49 0,17 -28,69 -73,137 l -74,110 79,42 78,42 143,-35 c 478,-116 714,-170 730,-166 22,6 39,36 31,56 -3,9 -22,20 -43,25 -20,5 -121,30 -226,55 -104,25 -268,64 -363,86 l -173,42 43,36 c 112,93 181,191 195,275 7,47 -25,114 -69,144 -76,51 -235,66 -393,38 -44,-8 -83,-15 -86,-15 -3,0 45,147 108,326 121,348 124,365 65,363 -15,0 -32,-3 -38,-5 z"
       id="path204" />
    <path
       d="m 1601,1464 c -40,-20 -71,-38 -68,-40 5,-5 136,51 150,65 21,21 -9,12 -82,-25 z"
       id="path206" />
    <path
       d="m 1465,1410 c -8,-13 5,-13 25,0 13,8 13,10 -2,10 -9,0 -20,-4 -23,-10 z"
       id="path208" />
    <path
       d="m 1348,1348 c -38,-17 -68,-34 -68,-39 0,-10 31,1 99,36 47,23 62,36 44,34 -5,0 -38,-14 -75,-31 z"
       id="path210" />
    <path
       d="m 1832,1135 c -40,-19 -72,-36 -72,-39 0,-8 114,35 135,50 38,28 6,23 -63,-11 z"
       id="path212" />
    <path
       d="m 1694,1055 c -18,-13 -18,-14 4,-8 12,3 25,9 28,14 8,14 -10,11 -32,-6 z"
       id="path214" />
    <path
       d="m 1575,1017 c -67,-29 -94,-46 -75,-47 17,0 140,56 140,65 0,8 -11,5 -65,-18 z"
       id="path216" />
  </g>
</svg>
