<?xml version="1.0" encoding="UTF-8" standalone="no"?>
<svg
   version="1.0"
   width="552.000000pt"
   height="576.000000pt"
   viewBox="0 0 552.000000 576.000000"
   preserveAspectRatio="xMidYMid meet"
   id="svg689"
   sodipodi:docname="hiking.svg"
   inkscape:version="1.2.1 (9c6d41e410, 2022-07-14)"
   xmlns:inkscape="http://www.inkscape.org/namespaces/inkscape"
   xmlns:sodipodi="http://sodipodi.sourceforge.net/DTD/sodipodi-0.dtd"
   xmlns="http://www.w3.org/2000/svg"
   xmlns:svg="http://www.w3.org/2000/svg">
  <defs
     id="defs693" />
  <sodipodi:namedview
     id="namedview691"
     pagecolor="#ffffff"
     bordercolor="#000000"
     borderopacity="0.25"
     inkscape:showpageshadow="2"
     inkscape:pageopacity="0.0"
     inkscape:pagecheckerboard="0"
     inkscape:deskcolor="#d1d1d1"
     inkscape:document-units="pt"
     showgrid="false"
     inkscape:zoom="0.096329489"
     inkscape:cx="2678.3076"
     inkscape:cy="539.81393"
     inkscape:window-width="1920"
     inkscape:window-height="1017"
     inkscape:window-x="1912"
     inkscape:window-y="32"
     inkscape:window-maximized="1"
     inkscape:current-layer="svg689" />
  <g
     transform="matrix(0.1,0,0,-0.1,-9.7322224,576.97322)"
     fill="#000000"
     stroke="none"
     id="g687"
     style="fill:#333333">
    <path
       d="m 2612,5384 c -41,-13 -97,-39 -125,-58 -65,-41 -153,-136 -190,-203 -34,-64 -67,-190 -67,-257 1,-135 57,-277 150,-379 71,-77 148,-124 252,-154 295,-85 592,80 686,381 26,82 21,235 -11,324 -45,129 -124,226 -242,297 -134,80 -308,99 -453,49 z"
       id="path681"
       style="fill:#333333" />
    <path
       d="m 2543,4256 c -196,-45 -364,-203 -426,-401 -14,-44 -42,-231 -77,-505 -6,-47 -17,-130 -25,-185 -13,-90 -50,-359 -76,-555 -16,-119 -13,-209 10,-276 l 20,-60 -28,-90 c -16,-49 -90,-282 -165,-519 C 1458,665 1468,701 1472,635 c 16,-258 333,-374 514,-188 31,32 56,77 104,190 35,81 155,364 266,627 112,264 208,484 213,489 6,6 46,-17 105,-59 l 95,-69 1,-495 c 0,-534 3,-567 53,-653 34,-57 87,-103 157,-136 46,-22 69,-26 145,-26 80,0 97,3 148,29 71,36 130,99 165,174 l 27,57 3,744 2,743 -42,42 c -24,22 -155,133 -292,245 l -248,204 5,36 c 3,20 20,142 38,271 18,129 33,236 34,238 1,1 56,-16 121,-37 272,-91 521,-139 761,-148 139,-5 162,-8 166,-23 2,-9 5,-59 6,-111 2,-127 19,-812 26,-1029 3,-96 7,-272 10,-390 23,-961 22,-936 54,-972 37,-42 100,-42 143,-2 l 30,29 -7,360 c -4,198 -8,367 -10,375 -1,8 -6,182 -10,386 -4,204 -9,386 -10,405 -4,46 -20,745 -20,888 v 114 l 54,17 c 79,26 131,67 163,129 81,154 -15,344 -186,367 -41,6 -44,9 -50,43 -3,20 -6,101 -7,181 -2,201 -9,248 -43,277 -33,28 -91,31 -122,5 -44,-35 -46,-50 -38,-297 l 7,-233 -58,-7 c -72,-9 -220,1 -303,20 -178,42 -311,175 -405,405 -23,58 -60,131 -81,163 -69,103 -191,194 -313,233 -69,22 -225,27 -300,10 z"
       id="path683"
       style="fill:#333333" />
    <path
       d="m 1815,4203 c -117,-42 -206,-120 -251,-218 -21,-45 -50,-173 -94,-420 -5,-27 -32,-174 -60,-325 -49,-259 -51,-279 -40,-341 29,-166 135,-285 298,-333 40,-11 54,-12 57,-3 2,7 16,98 30,202 34,254 72,535 91,670 8,61 24,178 35,260 28,213 71,336 158,452 48,62 46,63 -84,69 -70,4 -101,1 -140,-13 z"
       id="path685"
       style="fill:#333333" />
  </g>
</svg>
