<?xml version="1.0" encoding="UTF-8" standalone="no"?>
<svg
   version="1.0"
   width="700pt"
   height="700pt"
   viewBox="0 0 700 700"
   preserveAspectRatio="xMidYMid"
   id="svg1179"
   sodipodi:docname="resting.svg"
   inkscape:version="1.2.1 (9c6d41e410, 2022-07-14)"
   xmlns:inkscape="http://www.inkscape.org/namespaces/inkscape"
   xmlns:sodipodi="http://sodipodi.sourceforge.net/DTD/sodipodi-0.dtd"
   xmlns="http://www.w3.org/2000/svg"
   xmlns:svg="http://www.w3.org/2000/svg">
  <defs
     id="defs1183" />
  <sodipodi:namedview
     id="namedview1181"
     pagecolor="#ffffff"
     bordercolor="#000000"
     borderopacity="0.25"
     inkscape:showpageshadow="2"
     inkscape:pageopacity="0.0"
     inkscape:pagecheckerboard="0"
     inkscape:deskcolor="#d1d1d1"
     inkscape:document-units="pt"
     showgrid="false"
     inkscape:zoom="0.35119048"
     inkscape:cx="-224.94915"
     inkscape:cy="340.27118"
     inkscape:window-width="1350"
     inkscape:window-height="1040"
     inkscape:window-x="554"
     inkscape:window-y="45"
     inkscape:window-maximized="0"
     inkscape:current-layer="svg1179" />
  <g
     transform="matrix(0.14184343,0,0,-0.14466419,-15.205736,730.10307)"
     fill="#000000"
     stroke="none"
     id="g1177"
     style="fill:#333333">
    <path
       d="m 2156,4479 c -111,-26 -248,-124 -315,-226 -138,-208 -107,-492 73,-668 172,-169 430,-200 639,-78 298,174 347,589 98,833 -69,68 -162,121 -243,140 -53,12 -199,11 -252,-1 z"
       id="path1171"
       style="fill:#333333" />
    <path
       d="m 2052,3365 c -82,-25 -138,-87 -156,-172 -6,-27 1,-218 19,-523 5,-81 25,-463 44,-820 10,-200 25,-244 106,-318 90,-83 85,-82 644,-82 h 486 l 165,-326 c 176,-346 200,-382 277,-403 56,-16 82,-13 140,13 75,36 108,88 108,175 0,63 -8,84 -192,510 -106,244 -200,455 -208,468 -34,51 -53,53 -485,53 -220,0 -400,1 -400,3 -6,131 -11,580 -7,576 4,-3 45,-106 92,-229 47,-124 95,-238 105,-255 28,-45 92,-78 154,-78 117,0 199,95 183,211 -4,37 -383,1034 -418,1103 -22,45 -65,77 -126,95 -63,19 -469,18 -531,-1 z"
       id="path1173"
       style="fill:#333333" />
    <path
       d="m 1180,1195 v -195 h 975 975 v 195 195 h -975 -975 z"
       id="path1175"
       style="fill:#333333" />
  </g>
</svg>
