<?xml version="1.0" encoding="UTF-8" standalone="no"?>
<!-- Uploaded to: SVG Repo, www.svgrepo.com, Generator: SVG Repo Mixer Tools -->

<svg
   width="14"
   height="14"
   viewBox="0 0 0.2625 0.2625"
   fill="none"
   version="1.1"
   id="svg192"
   sodipodi:docname="track-inactive.svg"
   inkscape:version="1.2.1 (9c6d41e410, 2022-07-14)"
   xmlns:inkscape="http://www.inkscape.org/namespaces/inkscape"
   xmlns:sodipodi="http://sodipodi.sourceforge.net/DTD/sodipodi-0.dtd"
   xmlns="http://www.w3.org/2000/svg"
   xmlns:svg="http://www.w3.org/2000/svg">
  <defs
     id="defs196" />
  <sodipodi:namedview
     id="namedview194"
     pagecolor="#ffffff"
     bordercolor="#000000"
     borderopacity="0.25"
     inkscape:showpageshadow="2"
     inkscape:pageopacity="0.0"
     inkscape:pagecheckerboard="0"
     inkscape:deskcolor="#d1d1d1"
     showgrid="false"
     inkscape:zoom="35.68"
     inkscape:cx="3.2511211"
     inkscape:cy="10.397982"
     inkscape:window-width="1920"
     inkscape:window-height="1017"
     inkscape:window-x="1912"
     inkscape:window-y="32"
     inkscape:window-maximized="1"
     inkscape:current-layer="svg192" />
  <path
     fill-rule="evenodd"
     clip-rule="evenodd"
     d="M 0.13125,0 C 0.136082,0 0.1418812,0.00392377 0.1418812,0.00875625 V 0.0297375 C 0.1889947,0.0347535 0.2261733,0.07302085 0.2295,0.12061875 h 0.02425 c 0.004832,0 0.00875,0.005799 0.00875,0.0106313 0,0.004832 -0.002045,0.0106312 -0.006877,0.0106312 H 0.229177 c -0.004889,0.045927 -0.0413687,0.0824105 -0.0872958,0.0873 V 0.25375 c 0,0.004832 -0.005799,0.00875 -0.0106312,0.00875 -0.004832,0 -0.0106313,-0.003918 -0.0106313,-0.00875 V 0.2295 C 0.07302085,0.22617325 0.03287852,0.18899475 0.0278625,0.14188125 H 0.00875625 C 0.00392377,0.14188125 0,0.13608245 0,0.13125 0,0.12641755 0.00365521,0.11963422 0.00848725,0.11956875 L 0.0278625,0.11930625 C 0.03127325,0.0705103 0.0718228,0.03284825 0.12061875,0.0294375 V 0.00875 C 0.12061875,0.00391752 0.12641755,0 0.13125,0 Z m 0.0106312,0.2068125 V 0.16625 c 0,-0.004832 -0.005799,-0.00875 -0.0106312,-0.00875 -0.004832,0 -0.0106313,0.003918 -0.0106313,0.00875 V 0.2071875 C 0.08220923,0.20394825 0.0551099,0.17980025 0.05023125,0.14188125 H 0.09625 c 0.0048325,0 0.00875,-0.005799 0.00875,-0.0106312 0,-0.004832 -0.003919,-0.0105187 -0.00875,-0.0106313 l -0.04508125,-0.00105 C 0.0545081,0.0799596 0.0791721,0.0542456 0.11878125,0.05090625 l 5.25e-4,0.04481825 C 0.11936285,0.10055666 0.126418,0.105 0.13125,0.105 c 0.004832,0 0.0106312,-0.003918 0.0106312,-0.00875 l 5e-8,-0.04523125 c 0.0379183,0.0048786 0.063942,0.03119048 0.0671813,0.0696 h -0.0428063 c -0.004832,0 -0.008756,0.005799 -0.008756,0.0106313 0,0.004832 0.003918,0.0106312 0.00875,0.0106312 h 0.0424375 c -0.004727,0.0367343 -0.030072,0.0602045 -0.0668063,0.0649313 z"
     fill="#000000"
     id="path190"
     style="fill:#000000;stroke-width:0.354331;stroke-dasharray:none"
     sodipodi:nodetypes="ssccsssccsssccsssccsscsssccsssccsssccssscc" />
</svg>
